<svg width="22" height="20" viewBox="0 0 22 20" fill="none" xmlns="http://www.w3.org/2000/svg">
<path d="M16.6655 16.5373C16.0166 16.5454 15.372 16.431 14.7655 16.2003C14.2221 15.989 13.7311 15.6621 13.3265 15.2423C12.9279 14.8133 12.62 14.3082 12.4215 13.7573C12.2034 13.1479 12.0954 12.5045 12.1025 11.8573C12.0978 11.2212 12.209 10.5896 12.4305 9.99329C12.637 9.43726 12.9548 8.92923 13.3645 8.50029C13.7753 8.07669 14.2661 7.73884 14.8085 7.50629C15.3959 7.25778 16.0287 7.13416 16.6665 7.14329C17.3519 7.12865 18.0308 7.27958 18.6455 7.58329C19.1941 7.86471 19.6699 8.26968 20.0355 8.76629C20.4042 9.27354 20.6702 9.84798 20.8185 10.4573C20.9803 11.105 21.038 11.7744 20.9895 12.4403H14.5585C14.5329 13.0728 14.7496 13.6912 15.1645 14.1693C15.6002 14.5516 16.17 14.7451 16.7485 14.7073C17.2028 14.7179 17.6492 14.5876 18.0265 14.3343C18.326 14.1514 18.5558 13.8737 18.6795 13.5453H20.8345C20.5902 14.474 20.0283 15.2878 19.2465 15.8453C18.4725 16.324 17.575 16.5646 16.6655 16.5373ZM16.5965 8.99329C16.2604 8.98067 15.9263 9.04928 15.6225 9.19329C15.3848 9.31312 15.1739 9.4798 15.0025 9.68329C14.8516 9.86817 14.74 10.0818 14.6745 10.3113C14.6167 10.5025 14.5795 10.6992 14.5635 10.8983H18.5455C18.5168 10.3797 18.319 9.88484 17.9825 9.48929C17.61 9.13766 17.1075 8.95782 16.5965 8.99329ZM6.96646 16.3053H0.99646V4.00029H6.79646C7.33376 3.99559 7.87006 4.04754 8.39646 4.15529C8.84233 4.24234 9.26714 4.41484 9.64746 4.66329C9.99095 4.90173 10.2666 5.22529 10.4475 5.60229C10.6471 6.05643 10.7428 6.54944 10.7275 7.04529C10.7491 7.59389 10.6037 8.13614 10.3105 8.60029C9.98956 9.04338 9.55588 9.39247 9.05446 9.61129C9.73579 9.78157 10.3346 10.188 10.7445 10.7583C11.1251 11.3451 11.3177 12.0341 11.2965 12.7333C11.311 13.2925 11.188 13.8467 10.9385 14.3473C10.7081 14.7913 10.374 15.1731 9.96446 15.4603C9.53987 15.7557 9.06568 15.9725 8.56446 16.1003C8.04123 16.2377 7.50244 16.3069 6.96146 16.3063L6.96646 16.3053ZM3.70646 10.8223V14.2123H6.59646C6.85187 14.215 7.10679 14.1892 7.35646 14.1353C7.58503 14.0912 7.80257 14.0021 7.99646 13.8733C8.18318 13.7505 8.3348 13.5813 8.43646 13.3823C8.55436 13.1327 8.60995 12.8581 8.59846 12.5823C8.64693 12.0704 8.44861 11.5661 8.06446 11.2243C7.64999 10.939 7.15297 10.7984 6.65046 10.8243L3.70646 10.8223ZM3.70646 6.09729V8.97229H6.44846C6.87262 8.98899 7.29079 8.86796 7.64046 8.62729C7.97008 8.35355 8.14365 7.93497 8.10446 7.50829C8.11291 7.26337 8.06069 7.02016 7.95246 6.80029C7.8547 6.62255 7.71059 6.47464 7.53546 6.37229C7.35104 6.26293 7.14737 6.18995 6.93546 6.15729C6.7047 6.11403 6.47023 6.0936 6.23546 6.09629L3.70646 6.09729ZM19.0475 6.04129H14.0575V4.82629H19.0475V6.04029V6.04129Z" fill="#4B6D85"/>
</svg>
