<svg width="123" height="125" viewBox="0 0 123 125" fill="none" xmlns="http://www.w3.org/2000/svg">
<rect x="37.5362" y="81.3857" width="21.5759" height="37.8318" fill="#97EDFF"/>
<rect x="9.16238" y="102.371" width="21.5759" height="16.847" fill="#CCF6FF"/>
<rect x="66.2056" y="87.5928" width="21.2804" height="31.625" fill="#CCF6FF"/>
<rect x="93.9883" y="39.1211" width="21.5759" height="80.0969" fill="#00D2FF"/>
<rect y="119.219" width="122.953" height="5.61565" fill="#CCF6FF"/>
<path d="M17.8814 64.9828L49.0631 44.5891L76.4024 51.6826L102.563 14.9502" stroke="#00D2FF" stroke-width="2.95561"/>
<circle cx="17.7337" cy="65.1311" r="3.25117" fill="#00D2FF"/>
<circle cx="48.1764" cy="44.7375" r="3.25117" fill="#00D2FF"/>
<circle cx="76.8458" cy="51.8303" r="3.25117" fill="#00D2FF"/>
<path d="M105.646 19.6087L105.15 20.0994L104.66 19.6032L96.7433 11.598L96.2526 11.1018L96.7488 10.6111L99.4632 7.92686L99.9594 7.43616L100.45 7.93237L104.326 11.852L112.25 4.01775L112.746 3.52716L113.237 4.02331L116.786 7.61184L117.276 8.10805L116.78 8.59874L105.646 19.6087Z" fill="#00D2FF" stroke="white" stroke-width="1.39571"/>
</svg>
