<svg width="14" height="19" viewBox="0 0 14 19" fill="none" xmlns="http://www.w3.org/2000/svg">
<path d="M7 18.7303C5.73693 17.6529 4.56619 16.4718 3.5 15.1993C1.9 13.2883 8.83662e-07 10.4423 8.83662e-07 7.73027C-0.00141728 4.89782 1.70425 2.34367 4.32107 1.25967C6.93789 0.175679 9.95007 0.775515 11.952 2.77927C13.2685 4.08988 14.0059 5.87266 14 7.73027C14 10.4423 12.1 13.2883 10.5 15.1993C9.43382 16.4718 8.26307 17.6529 7 18.7303ZM7 2.73027C4.23995 2.73358 2.00331 4.97022 2 7.73027C2 8.89627 2.527 10.9153 5.035 13.9163C5.65314 14.6543 6.30902 15.3599 7 16.0303C7.69105 15.3607 8.34724 14.6561 8.966 13.9193C11.473 10.9143 12 8.89527 12 7.73027C11.9967 4.97022 9.76006 2.73358 7 2.73027ZM7 10.7303C5.34315 10.7303 4 9.38713 4 7.73027C4 6.07342 5.34315 4.73027 7 4.73027C8.65686 4.73027 10 6.07342 10 7.73027C10 8.52592 9.68393 9.28899 9.12132 9.8516C8.55871 10.4142 7.79565 10.7303 7 10.7303Z" fill="#E5710A"/>
</svg>
