<svg width="152" height="127" viewBox="0 0 152 127" fill="none" xmlns="http://www.w3.org/2000/svg">
<path d="M55.0513 123.525L127.377 52.0029L104.324 28.6915L49.626 82.7702L21.2595 54.0851L3.6265 71.5222L55.0513 123.525Z" fill="#00D2FF"/>
<rect x="100.42" y="28.1074" width="5.43998" height="5.43998" transform="rotate(-45 100.42 28.1074)" fill="#97EDFF"/>
<rect x="122.4" y="51.8994" width="5.43998" height="5.43998" transform="rotate(-45 122.4 51.8994)" fill="#97EDFF"/>
<rect x="45.3332" y="82.7266" width="5.43998" height="5.43998" transform="rotate(-45 45.3332 82.7266)" fill="#97EDFF"/>
<rect x="17.2266" y="54.6201" width="5.43998" height="5.43998" transform="rotate(-45 17.2266 54.6201)" fill="#97EDFF"/>
<rect y="71.8467" width="5.43998" height="5.43998" transform="rotate(-45 0 71.8467)" fill="#97EDFF"/>
<rect x="50.7732" y="122.619" width="5.43998" height="5.43998" transform="rotate(-45 50.7732 122.619)" fill="#97EDFF"/>
<path d="M134.556 74.2036L126.629 52.5765C126.467 52.1342 126.824 51.6749 127.293 51.7231L150.204 54.0751C150.802 54.1365 150.99 54.9159 150.486 55.2436L139.857 62.153L135.757 74.1897C135.564 74.7586 134.762 74.7679 134.556 74.2036Z" fill="#97EDFF"/>
<path d="M126.026 28.1074C126.026 43.5207 126.026 58.934 126.026 74.3473" stroke="#97EDFF" stroke-width="1.82722"/>
<circle cx="126.026" cy="28.1073" r="1.81333" fill="#97EDFF"/>
<circle cx="126.026" cy="74.3475" r="1.81333" fill="#97EDFF"/>
</svg>
