<svg width="23" height="23" viewBox="0 0 23 23" fill="none" xmlns="http://www.w3.org/2000/svg">
<path d="M22.3238 6.59205C22.2849 6.55299 22.2849 6.553 22.246 6.51394C22.246 6.27959 22.2071 6.04524 22.1294 5.84995L20.7293 2.37381L20.6126 2.06135C20.4959 1.78794 20.3792 1.39736 20.107 1.12396C19.757 0.772438 19.2903 0.577148 18.7069 0.577148H5.67823H4.00589C3.92811 0.577148 3.88922 0.577148 3.81143 0.577148C3.0336 0.616206 2.41134 1.04584 2.1391 1.74888L1.01124 4.6001L0.544543 5.77184C0.505651 5.84995 0.505651 5.88901 0.46676 5.96713C0.388977 6.16242 0.388977 6.35771 0.388977 6.553C0.350085 6.59205 0.311193 6.59205 0.311193 6.63111C0.116736 6.78734 6.10352e-05 7.06075 6.10352e-05 7.29509C6.10352e-05 8.03719 0.23341 8.77929 0.661217 9.36516C1.01124 9.87291 1.47794 10.2635 1.98353 10.5369C1.98353 10.576 1.98353 10.576 1.98353 10.615V21.0825C1.98353 21.395 2.02242 21.7465 2.21688 22.098C2.52801 22.6058 3.0336 22.8792 3.61698 22.8792H18.9402C19.6014 22.8792 20.1848 22.5276 20.457 21.9808C20.6126 21.6684 20.6515 21.3559 20.6515 21.0434V11.3571V10.576C20.6515 10.5369 20.6515 10.5369 20.6515 10.4978C21.1182 10.2635 21.5071 9.99008 21.8182 9.59951C22.3627 8.93552 22.6738 8.11531 22.6738 7.29509C22.6349 7.02169 22.5183 6.78734 22.3238 6.59205ZM14.4288 14.0521C14.1955 13.9349 13.9621 13.8959 13.6899 13.8959H8.94512C8.43953 13.8959 7.97283 14.0912 7.6617 14.4427C7.35056 14.7942 7.15611 15.2238 7.15611 15.6925V20.8872H3.967V10.8494C4.82261 10.7712 5.60044 10.3807 6.14493 9.75574C6.53384 10.1463 7.00054 10.4588 7.54502 10.6541C8.86733 11.1228 10.3841 10.7712 11.3175 9.75574C11.7064 10.1463 12.1731 10.4588 12.7176 10.6541C14.0399 11.1228 15.5567 10.7712 16.4901 9.75574C16.879 10.1463 17.3457 10.4588 17.8902 10.6541C18.1624 10.7322 18.3958 10.8103 18.668 10.8494V20.8872H15.4789V15.6535C15.4789 14.9504 15.0511 14.3255 14.4288 14.0521ZM9.17847 16.1222C9.17847 16.044 9.17847 15.9659 9.17847 15.8878C9.21736 15.8878 9.21736 15.8878 9.25625 15.8878H13.3399C13.3788 15.8878 13.4565 15.8878 13.4954 15.8878V20.8872H9.17847V16.1222ZM3.967 2.5691C4.12257 2.5691 4.27813 2.5691 4.39481 2.5691H18.668L20.1459 6.27959H2.45023L3.967 2.5691Z" fill="#E5710A"/>
</svg>
