<svg width="144" height="55" viewBox="0 0 144 55" fill="none" xmlns="http://www.w3.org/2000/svg">
<path d="M22.0834 49.3686L48.0283 23.7119L39.7588 15.3495L20.1372 34.7489L9.96139 24.4588L3.63598 30.714L22.0834 49.3686Z" fill="#00D2FF"/>
<path d="M64.6636 41.0826C63.3996 41.0826 62.2595 40.8905 61.2431 40.5061C60.2268 40.1218 59.4198 39.5667 58.8219 38.8407C58.2326 38.1148 57.938 37.2351 57.938 36.2018C57.938 36.1334 57.938 36.0566 57.938 35.9712C57.938 35.8772 57.938 35.7961 57.938 35.7278H62.8189C62.8189 35.7875 62.8189 35.8516 62.8189 35.9199C62.8189 35.9882 62.8189 36.0523 62.8189 36.1121C62.8189 36.4025 62.9854 36.6757 63.3185 36.932C63.6515 37.1796 64.2024 37.3035 64.971 37.3035C65.4664 37.3035 65.8763 37.2565 66.2009 37.1626C66.5339 37.0686 66.7005 36.9021 66.7005 36.6629C66.7005 36.458 66.5211 36.2658 66.1624 36.0865C65.8037 35.8986 65.3212 35.7149 64.7148 35.5356C64.117 35.3477 63.4508 35.1555 62.7164 34.9591C61.9563 34.7541 61.2175 34.451 60.5001 34.0496C59.7827 33.6482 59.1934 33.1229 58.7322 32.4738C58.2711 31.8248 58.0405 31.0305 58.0405 30.0911C58.0405 29.1174 58.3351 28.2805 58.9244 27.5802C59.5222 26.8799 60.3208 26.3418 61.32 25.966C62.3278 25.5902 63.4423 25.4024 64.6636 25.4024C65.919 25.4024 67.0506 25.5988 68.0584 25.9916C69.0662 26.3845 69.8604 26.9311 70.4412 27.6314C71.0305 28.3317 71.3251 29.1473 71.3251 30.0783C71.3251 30.138 71.3251 30.2064 71.3251 30.2832C71.3251 30.3515 71.3251 30.4199 71.3251 30.4882H66.4443C66.4443 30.4797 66.4443 30.4498 66.4443 30.3985C66.4443 30.3473 66.4443 30.3174 66.4443 30.3088C66.4443 30.0526 66.3076 29.8007 66.0343 29.553C65.7696 29.2968 65.2657 29.1687 64.5227 29.1687C63.9932 29.1687 63.5619 29.2456 63.2288 29.3993C62.9043 29.553 62.742 29.7793 62.742 30.0783C62.742 30.3174 62.8872 30.5309 63.1775 30.7188C63.4765 30.9067 63.8907 31.086 64.4202 31.2568C64.9497 31.4276 65.5561 31.607 66.2393 31.7949C67.2471 32.0682 68.1395 32.3927 68.9167 32.7685C69.7025 33.1357 70.3216 33.6183 70.7743 34.2161C71.2269 34.8054 71.4532 35.574 71.4532 36.522C71.4532 37.5042 71.1586 38.3369 70.5693 39.0201C69.98 39.6948 69.1729 40.2072 68.1481 40.5574C67.1318 40.9075 65.9703 41.0826 64.6636 41.0826ZM85.7155 29.3224H79.4383L81.7698 26.9909V40.8008H76.8762V26.9909L79.2077 29.3224H72.9433V25.6842H85.7155V29.3224ZM101.086 35.4844C101.086 37.3376 100.471 38.734 99.241 39.6734C98.0112 40.6129 96.35 41.0826 94.2576 41.0826C92.1652 41.0826 90.5084 40.6129 89.2871 39.6734C88.0658 38.734 87.4552 37.3376 87.4552 35.4844C87.4552 35.2623 87.4552 35.0317 87.4552 34.7926C87.4552 34.5534 87.4552 34.31 87.4552 34.0624V25.6842H92.3488V34.8694C92.3488 35.0146 92.3488 35.1513 92.3488 35.2794C92.3488 35.3989 92.3488 35.5142 92.3488 35.6253C92.3488 36.1462 92.4812 36.5562 92.746 36.8551C93.0107 37.154 93.5146 37.3035 94.2576 37.3035C95.0434 37.3035 95.5601 37.1412 95.8077 36.8167C96.0554 36.4921 96.1792 36.095 96.1792 35.6253V25.6842H101.086V35.4844ZM103.497 40.8008V25.6842H110.236C111.764 25.6842 113.067 26.0215 114.143 26.6962C115.219 27.3624 116.039 28.2634 116.602 29.3993C117.166 30.5266 117.448 31.7906 117.448 33.1912C117.448 34.5919 117.166 35.8687 116.602 37.0216C116.039 38.1746 115.219 39.0927 114.143 39.7759C113.067 40.4592 111.764 40.8008 110.236 40.8008H103.497ZM108.391 37.1626H109.454C109.992 37.1626 110.487 37.0003 110.94 36.6757C111.401 36.3512 111.773 35.8943 112.055 35.305C112.336 34.7072 112.477 34.0026 112.477 33.1912C112.477 31.9785 112.174 31.0305 111.568 30.3473C110.961 29.664 110.257 29.3224 109.454 29.3224H108.391V37.1626ZM119.559 40.8008V25.6842H124.388V40.8008H119.559ZM134.579 41.1467C133.11 41.1467 131.76 40.8478 130.53 40.2499C129.309 39.6521 128.331 38.7639 127.597 37.5853C126.862 36.4067 126.495 34.9548 126.495 33.2297C126.495 31.496 126.854 30.0526 127.571 28.8997C128.297 27.7382 129.271 26.867 130.492 26.2863C131.722 25.697 133.084 25.4024 134.579 25.4024C136.082 25.4024 137.444 25.697 138.665 26.2863C139.887 26.867 140.856 27.7382 141.573 28.8997C142.299 30.0526 142.662 31.496 142.662 33.2297C142.662 34.9548 142.295 36.4067 141.56 37.5853C140.826 38.7639 139.844 39.6521 138.614 40.2499C137.393 40.8478 136.048 41.1467 134.579 41.1467ZM134.579 37.3035C135.117 37.3035 135.621 37.201 136.09 36.996C136.569 36.7825 136.953 36.3854 137.243 35.8046C137.542 35.2153 137.692 34.357 137.692 33.2297C137.692 32.0938 137.542 31.2398 137.243 30.6675C136.944 30.0868 136.556 29.6982 136.077 29.5018C135.608 29.2968 135.108 29.1943 134.579 29.1943C134.049 29.1943 133.545 29.2968 133.067 29.5018C132.589 29.6982 132.2 30.0868 131.901 30.6675C131.611 31.2398 131.466 32.0938 131.466 33.2297C131.466 34.357 131.615 35.2153 131.914 35.8046C132.213 36.3854 132.597 36.7825 133.067 36.996C133.545 37.201 134.049 37.3035 134.579 37.3035Z" fill="#4B6D85"/>
</svg>
