<svg width="68" height="73" viewBox="0 0 68 73" fill="none" xmlns="http://www.w3.org/2000/svg">
<path d="M32.8376 48.0173L58.0727 23.0625L50.0294 14.9289L30.9446 33.7976L21.0472 23.789L14.8948 29.873L32.8376 48.0173Z" fill="#00D2FF"/>
<path d="M6.13552 68.0486C5.1469 68.0486 4.25514 67.8983 3.46024 67.5977C2.66534 67.2971 2.03409 66.8629 1.5665 66.2951C1.1056 65.7273 0.875141 65.0393 0.875141 64.231C0.875141 64.1776 0.875141 64.1175 0.875141 64.0507C0.875141 63.9772 0.875141 63.9137 0.875141 63.8603H4.69267C4.69267 63.9071 4.69267 63.9572 4.69267 64.0106C4.69267 64.064 4.69267 64.1141 4.69267 64.1609C4.69267 64.388 4.82293 64.6018 5.08344 64.8022C5.34395 64.9959 5.7748 65.0927 6.37599 65.0927C6.76342 65.0927 7.08405 65.056 7.33789 64.9825C7.5984 64.909 7.72866 64.7788 7.72866 64.5917C7.72866 64.4314 7.58838 64.2811 7.30783 64.1409C7.02727 63.9939 6.64986 63.8503 6.17559 63.71C5.70801 63.563 5.18698 63.4128 4.61251 63.2591C4.01801 63.0988 3.4402 62.8617 2.87909 62.5477C2.31799 62.2338 1.85708 61.8229 1.49637 61.3153C1.13566 60.8076 0.955299 60.1864 0.955299 59.4516C0.955299 58.6901 1.18575 58.0355 1.64666 57.4877C2.11425 56.94 2.73882 56.5192 3.52036 56.2252C4.30858 55.9313 5.1803 55.7844 6.13552 55.7844C7.11745 55.7844 8.00253 55.938 8.79075 56.2453C9.57897 56.5526 10.2002 56.9801 10.6544 57.5278C11.1153 58.0756 11.3458 58.7135 11.3458 59.4416C11.3458 59.4883 11.3458 59.5418 11.3458 59.6019C11.3458 59.6553 11.3458 59.7088 11.3458 59.7622H7.52826C7.52826 59.7555 7.52826 59.7322 7.52826 59.6921C7.52826 59.652 7.52826 59.6286 7.52826 59.6219C7.52826 59.4215 7.42138 59.2245 7.20763 59.0308C7.00055 58.8304 6.60644 58.7302 6.0253 58.7302C5.61115 58.7302 5.27382 58.7903 5.0133 58.9105C4.75947 59.0308 4.63255 59.2078 4.63255 59.4416C4.63255 59.6286 4.74611 59.7956 4.97322 59.9426C5.20702 60.0895 5.53099 60.2298 5.94514 60.3634C6.35929 60.497 6.83356 60.6373 7.36795 60.7842C8.15617 60.998 8.85421 61.2518 9.46208 61.5457C10.0766 61.833 10.5609 62.2104 10.9149 62.678C11.269 63.1389 11.446 63.7401 11.446 64.4815C11.446 65.2497 11.2155 65.901 10.7546 66.4354C10.2937 66.9631 9.66247 67.3639 8.86089 67.6377C8.06599 67.9116 7.15753 68.0486 6.13552 68.0486ZM22.6011 58.8504H17.6914L19.515 57.0268V67.8281H15.6875V57.0268L17.5111 58.8504H12.6114V56.0048H22.6011V58.8504ZM34.6228 63.6699C34.6228 65.1194 34.1418 66.2116 33.1799 66.9464C32.218 67.6812 30.9188 68.0486 29.2823 68.0486C27.6457 68.0486 26.3498 67.6812 25.3946 66.9464C24.4394 66.2116 23.9618 65.1194 23.9618 63.6699C23.9618 63.4962 23.9618 63.3159 23.9618 63.1289C23.9618 62.9418 23.9618 62.7514 23.9618 62.5577V56.0048H27.7893V63.189C27.7893 63.3025 27.7893 63.4094 27.7893 63.5096C27.7893 63.6031 27.7893 63.6933 27.7893 63.7801C27.7893 64.1876 27.8928 64.5082 28.0999 64.742C28.307 64.9758 28.7011 65.0927 29.2823 65.0927C29.8968 65.0927 30.3009 64.9658 30.4946 64.712C30.6884 64.4581 30.7852 64.1475 30.7852 63.7801V56.0048H34.6228V63.6699ZM36.5089 67.8281V56.0048H41.7792C42.9749 56.0048 43.9936 56.2687 44.8353 56.7964C45.6769 57.3174 46.3182 58.0221 46.7591 58.9105C47.1999 59.7923 47.4204 60.7809 47.4204 61.8764C47.4204 62.9719 47.1999 63.9705 46.7591 64.8723C46.3182 65.7741 45.6769 66.4922 44.8353 67.0265C43.9936 67.5609 42.9749 67.8281 41.7792 67.8281H36.5089ZM40.3364 64.9825H41.168C41.5889 64.9825 41.9763 64.8556 42.3303 64.6018C42.691 64.3479 42.9816 63.9906 43.2021 63.5296C43.4225 63.0621 43.5327 62.511 43.5327 61.8764C43.5327 60.9278 43.2956 60.1864 42.8213 59.652C42.347 59.1176 41.7959 58.8504 41.168 58.8504H40.3364V64.9825ZM49.0713 67.8281V56.0048H52.8487V67.8281H49.0713ZM60.819 68.0987C59.67 68.0987 58.6146 67.8649 57.6527 67.3973C56.6975 66.9297 55.9327 66.235 55.3582 65.3132C54.7837 64.3913 54.4965 63.2558 54.4965 61.9064C54.4965 60.5504 54.7771 59.4215 55.3382 58.5198C55.906 57.6113 56.6675 56.93 57.6227 56.4757C58.5846 56.0148 59.65 55.7844 60.819 55.7844C61.9946 55.7844 63.0601 56.0148 64.0153 56.4757C64.9705 56.93 65.7287 57.6113 66.2898 58.5198C66.8576 59.4215 67.1415 60.5504 67.1415 61.9064C67.1415 63.2558 66.8542 64.3913 66.2798 65.3132C65.7053 66.235 64.9371 66.9297 63.9752 67.3973C63.02 67.8649 61.9679 68.0987 60.819 68.0987ZM60.819 65.0927C61.2398 65.0927 61.6339 65.0126 62.0013 64.8523C62.3754 64.6853 62.676 64.3746 62.9031 63.9204C63.1369 63.4595 63.2538 62.7882 63.2538 61.9064C63.2538 61.018 63.1369 60.35 62.9031 59.9025C62.6693 59.4483 62.3654 59.1443 61.9913 58.9907C61.6239 58.8304 61.2331 58.7502 60.819 58.7502C60.4048 58.7502 60.0107 58.8304 59.6367 58.9907C59.2626 59.1443 58.9586 59.4483 58.7249 59.9025C58.4977 60.35 58.3842 61.018 58.3842 61.9064C58.3842 62.7882 58.5011 63.4595 58.7349 63.9204C58.9687 64.3746 59.2693 64.6853 59.6367 64.8523C60.0107 65.0126 60.4048 65.0927 60.819 65.0927Z" fill="#4B6D85"/>
</svg>
